<svg width="16" height="16" viewBox="0 0 16 16" fill="none" xmlns="http://www.w3.org/2000/svg">
<circle cx="8" cy="8" r="8" fill="#2A3344"/>
<path fill-rule="evenodd" clip-rule="evenodd" d="M11.9789 7.0271C11.8164 7.14487 11.7434 7.34807 11.7697 7.54705C11.7896 7.69718 11.7998 7.84845 11.8001 8C11.7998 8.15155 11.7896 8.30282 11.7697 8.45295C11.7434 8.65193 11.8164 8.85513 11.9789 8.9729L12.6278 9.44306C12.8383 9.59552 12.8968 9.88376 12.7626 10.1063L12.2701 10.9224C12.1433 11.1327 11.8825 11.2197 11.6548 11.1277L10.8425 10.7998C10.6674 10.7291 10.4691 10.7654 10.3175 10.8779C10.0531 11.074 9.76265 11.2358 9.45387 11.3591C9.27189 11.4317 9.13421 11.5906 9.10882 11.7849L9.00692 12.5648C8.97438 12.8138 8.76223 13 8.51113 13H7.48891C7.23781 13 7.02566 12.8138 6.99312 12.5648L6.89122 11.7849C6.86583 11.5906 6.72815 11.4317 6.54617 11.3591C6.23739 11.2358 5.94697 11.074 5.68252 10.8779C5.53089 10.7654 5.3326 10.7291 5.15754 10.7998L4.34519 11.1278C4.1175 11.2197 3.85676 11.1327 3.7299 10.9224L3.23746 10.1063C3.10322 9.88376 3.16178 9.59552 3.3722 9.44306L4.02049 8.97334C4.18334 8.85535 4.25626 8.65163 4.22981 8.45228C4.18997 8.15197 4.18997 7.84803 4.22981 7.54772C4.25626 7.34837 4.18334 7.14465 4.02049 7.02666L3.3722 6.55694C3.16178 6.40448 3.10322 6.11624 3.23746 5.89374L3.7299 5.07759C3.85676 4.86734 4.1175 4.78033 4.34519 4.87225L5.15754 5.2002C5.3326 5.27088 5.53089 5.23461 5.68252 5.12214C5.94697 4.92599 6.23739 4.76417 6.54617 4.64091C6.72815 4.56827 6.86583 4.40939 6.89122 4.2151L6.99312 3.43522C7.02566 3.18623 7.23781 3 7.48891 3H8.51113C8.76223 3 8.97438 3.18623 9.00692 3.43522L9.10882 4.2151C9.13421 4.40939 9.27189 4.56827 9.45387 4.64091C9.76265 4.76417 10.0531 4.92599 10.3175 5.12214C10.4691 5.23461 10.6674 5.27088 10.8425 5.2002L11.6548 4.87225C11.8825 4.78033 12.1433 4.86735 12.2701 5.07759L12.7626 5.89374C12.8968 6.11624 12.8383 6.40448 12.6278 6.55694L11.9789 7.0271ZM10 8C10 9.10457 9.10459 10 8.00002 10C6.89545 10 6.00002 9.10457 6.00002 8C6.00002 6.89543 6.89545 6 8.00002 6C9.10459 6 10 6.89543 10 8Z" fill="white"/>
</svg>
