<svg width="18" height="18" viewBox="0 0 18 18" fill="none" xmlns="http://www.w3.org/2000/svg">
<mask id="mask0" mask-type="alpha" maskUnits="userSpaceOnUse" x="1" y="1" width="16" height="16">
<path fill-rule="evenodd" clip-rule="evenodd" d="M4.875 6.75C4.33029 6.75 3.99688 6.74919 3.74601 6.73207C3.53296 6.71753 3.46915 6.69536 3.46299 6.69291C3.27922 6.61679 3.13318 6.47079 3.05706 6.28702C3.05462 6.28086 3.03247 6.21704 3.01793 6.00399C3.00081 5.75312 3 5.41971 3 4.875C3 4.33029 3.00081 3.99688 3.01793 3.74601C3.03247 3.53296 3.05464 3.46915 3.05709 3.46299C3.13321 3.27922 3.27921 3.13318 3.46298 3.05706C3.46914 3.05462 3.53296 3.03247 3.74601 3.01793C3.99688 3.00081 4.33029 3 4.875 3C5.41971 3 14.0031 3.00081 14.254 3.01793C14.467 3.03247 14.5308 3.05464 14.537 3.05709C14.7208 3.13321 14.8668 3.27921 14.9429 3.46298C14.9454 3.46914 14.9675 3.53296 14.9821 3.74601C14.9992 3.99688 15 4.33029 15 4.875C15 5.41971 14.9992 5.75312 14.9821 6.00399C14.9675 6.21704 14.9454 6.28085 14.9429 6.28701C14.8668 6.47078 14.7208 6.61682 14.537 6.69294C14.5309 6.69538 14.467 6.71753 14.254 6.73207C14.0031 6.74919 5.41971 6.75 4.875 6.75ZM1.5 4.875C1.5 3.82663 1.5 3.30245 1.67127 2.88896C1.89963 2.33765 2.33765 1.89963 2.88896 1.67127C3.30245 1.5 3.82663 1.5 4.875 1.5C5.92337 1.5 14.6976 1.5 15.111 1.67127C15.6624 1.89963 16.1004 2.33765 16.3287 2.88896C16.5 3.30245 16.5 3.82663 16.5 4.875C16.5 5.92337 16.5 6.44755 16.3287 6.86104C16.1004 7.41235 15.6624 7.85037 15.111 8.07873C14.6976 8.25 5.92337 8.25 4.875 8.25C3.82663 8.25 3.30245 8.25 2.88896 8.07873C2.33765 7.85037 1.89963 7.41235 1.67127 6.86104C1.5 6.44755 1.5 5.92337 1.5 4.875ZM4.875 15C4.33029 15 3.99688 14.9992 3.74601 14.9821C3.53296 14.9675 3.46915 14.9454 3.46299 14.9429C3.27922 14.8668 3.13318 14.7208 3.05706 14.537C3.05462 14.5309 3.03247 14.467 3.01793 14.254C3.00081 14.0031 3 13.6697 3 13.125C3 12.5803 3.00081 12.2469 3.01793 11.996C3.03247 11.783 3.05464 11.7191 3.05709 11.713C3.13321 11.5292 3.27921 11.3832 3.46298 11.3071C3.46914 11.3046 3.53296 11.2825 3.74601 11.2679C3.99688 11.2508 4.33029 11.25 4.875 11.25C5.41971 11.25 14.0031 11.2508 14.254 11.2679C14.467 11.2825 14.5308 11.3046 14.537 11.3071C14.7208 11.3832 14.8668 11.5292 14.9429 11.713C14.9454 11.7191 14.9675 11.783 14.9821 11.996C14.9992 12.2469 15 12.5803 15 13.125C15 13.6697 14.9992 14.0031 14.9821 14.254C14.9675 14.467 14.9454 14.5309 14.9429 14.537C14.8668 14.7208 14.7208 14.8668 14.537 14.9429C14.5309 14.9454 14.467 14.9675 14.254 14.9821C14.0031 14.9992 5.41971 15 4.875 15ZM1.5 13.125C1.5 12.0766 1.5 11.5524 1.67127 11.139C1.89963 10.5876 2.33765 10.1496 2.88896 9.92127C3.30245 9.75 3.82663 9.75 4.875 9.75C5.92337 9.75 14.6976 9.75 15.111 9.92127C15.6624 10.1496 16.1004 10.5876 16.3287 11.139C16.5 11.5524 16.5 12.0766 16.5 13.125C16.5 14.1734 16.5 14.6976 16.3287 15.111C16.1004 15.6624 15.6624 16.1004 15.111 16.3287C14.6976 16.5 5.92337 16.5 4.875 16.5C3.82663 16.5 3.30245 16.5 2.88896 16.3287C2.33765 16.1004 1.89963 15.6624 1.67127 15.111C1.5 14.6976 1.5 14.1734 1.5 13.125Z" fill="black"/>
</mask>
<g mask="url(#mask0)">
<rect width="18" height="18" fill="#7F86A0"/>
</g>
</svg>
