<svg width="14" height="14" viewBox="0 0 14 14" fill="none" xmlns="http://www.w3.org/2000/svg">
<mask id="mask0" mask-type="alpha" maskUnits="userSpaceOnUse" x="1" y="2" width="12" height="10">
<path fill-rule="evenodd" clip-rule="evenodd" d="M2.33329 4.08341H1.74996C1.42779 4.08341 1.16663 3.82225 1.16663 3.50008C1.16663 3.17792 1.42779 2.91675 1.74996 2.91675H2.33329C2.65546 2.91675 2.91663 3.17792 2.91663 3.50008C2.91663 3.82225 2.65546 4.08341 2.33329 4.08341ZM12.25 7.58342H4.66663C4.34446 7.58342 4.08329 7.32225 4.08329 7.00008C4.08329 6.67792 4.34446 6.41675 4.66663 6.41675H12.25C12.5721 6.41675 12.8333 6.67792 12.8333 7.00008C12.8333 7.32225 12.5721 7.58342 12.25 7.58342ZM1.74996 11.0834H2.33329C2.65546 11.0834 2.91663 10.8222 2.91663 10.5001C2.91663 10.1779 2.65546 9.91675 2.33329 9.91675H1.74996C1.42779 9.91675 1.16663 10.1779 1.16663 10.5001C1.16663 10.8222 1.42779 11.0834 1.74996 11.0834ZM12.25 4.08341H4.66663C4.34446 4.08341 4.08329 3.82225 4.08329 3.50008C4.08329 3.17792 4.34446 2.91675 4.66663 2.91675H12.25C12.5721 2.91675 12.8333 3.17792 12.8333 3.50008C12.8333 3.82225 12.5721 4.08341 12.25 4.08341ZM2.33329 7.58342H1.74996C1.42779 7.58342 1.16663 7.32225 1.16663 7.00008C1.16663 6.67792 1.42779 6.41675 1.74996 6.41675H2.33329C2.65546 6.41675 2.91663 6.67792 2.91663 7.00008C2.91663 7.32225 2.65546 7.58342 2.33329 7.58342ZM4.66663 11.0834H12.25C12.5721 11.0834 12.8333 10.8222 12.8333 10.5001C12.8333 10.1779 12.5721 9.91675 12.25 9.91675H4.66663C4.34446 9.91675 4.08329 10.1779 4.08329 10.5001C4.08329 10.8222 4.34446 11.0834 4.66663 11.0834Z" fill="black"/>
</mask>
<g mask="url(#mask0)">
<rect width="14" height="14" fill="#7F86A0"/>
</g>
</svg>
