<svg id="icon_no-image" data-name="icon / no-image" xmlns="http://www.w3.org/2000/svg" width="24" height="24" viewBox="0 0 24 24">
  <g id="bkg_icon" data-name="bkg icon">
    <rect id="bkg" width="24" height="24" fill="#2ab4ba" opacity="0"/>
  </g>
  <path id="icons8-no_camera" d="M3.182,2.293l-.979,1,16.615,17,.979-1L18.21,17.667h.406A1.4,1.4,0,0,0,20,16.251V7.043a1.4,1.4,0,0,0-1.385-1.417H15.664a1.381,1.381,0,0,1-1.239-.783l-.273-.559A1.383,1.383,0,0,0,12.913,3.5H9.087a1.381,1.381,0,0,0-1.239.783l-.273.559a1.378,1.378,0,0,1-1.148.769Zm-.435,3.5A1.416,1.416,0,0,0,2,7.043v9.208a1.4,1.4,0,0,0,1.385,1.417H14.353l-1.687-1.725A4.723,4.723,0,0,1,11,16.251a4.908,4.908,0,0,1-4.846-4.958,5.032,5.032,0,0,1,.3-1.7ZM11,6.335a4.908,4.908,0,0,1,4.846,4.958,4.981,4.981,0,0,1-.975,2.959l-.987-1.01a3.574,3.574,0,0,0,.577-1.949A3.5,3.5,0,0,0,11,7.752a3.382,3.382,0,0,0-1.905.591l-.987-1.01A4.727,4.727,0,0,1,11,6.335Zm6.231.708a.708.708,0,1,1-.692.708A.7.7,0,0,1,17.231,7.043Zm-9.64,3.707a3.586,3.586,0,0,0-.053.542A3.5,3.5,0,0,0,11,14.834a3.354,3.354,0,0,0,.53-.054Z" transform="translate(1 0.707)" fill="#7f86a0" opacity="0.5"/>
</svg>
