<svg width="18" height="18" viewBox="0 0 18 18" fill="none" xmlns="http://www.w3.org/2000/svg">
<path fill-rule="evenodd" clip-rule="evenodd" d="M5.25 3.75H3.75H2.25C1.83579 3.75 1.5 4.08579 1.5 4.5C1.5 4.91421 1.83579 5.25 2.25 5.25H3V15C3 16.2426 4.00736 17.25 5.25 17.25H12.75C13.9926 17.25 15 16.2426 15 15V5.25H15.75C16.1642 5.25 16.5 4.91421 16.5 4.5C16.5 4.08579 16.1642 3.75 15.75 3.75H14.25H12.75V3C12.75 1.75736 11.7426 0.75 10.5 0.75H7.5C6.25736 0.75 5.25 1.75736 5.25 3V3.75ZM6.75 3.75H11.25V3C11.25 2.58579 10.9142 2.25 10.5 2.25H7.5C7.08579 2.25 6.75 2.58579 6.75 3V3.75ZM12 5.25H6H4.5V15C4.5 15.4142 4.83579 15.75 5.25 15.75H12.75C13.1642 15.75 13.5 15.4142 13.5 15V5.25H12ZM6.75 8.25V12.75C6.75 13.1642 7.08579 13.5 7.5 13.5C7.91421 13.5 8.25 13.1642 8.25 12.75V8.25C8.25 7.83579 7.91421 7.5 7.5 7.5C7.08579 7.5 6.75 7.83579 6.75 8.25ZM9.75 12.75V8.25C9.75 7.83579 10.0858 7.5 10.5 7.5C10.9142 7.5 11.25 7.83579 11.25 8.25V12.75C11.25 13.1642 10.9142 13.5 10.5 13.5C10.0858 13.5 9.75 13.1642 9.75 12.75Z" fill="#473CD2"/>
<mask id="mask0" mask-type="alpha" maskUnits="userSpaceOnUse" x="1" y="0" width="16" height="18">
<path fill-rule="evenodd" clip-rule="evenodd" d="M5.25 3.75H3.75H2.25C1.83579 3.75 1.5 4.08579 1.5 4.5C1.5 4.91421 1.83579 5.25 2.25 5.25H3V15C3 16.2426 4.00736 17.25 5.25 17.25H12.75C13.9926 17.25 15 16.2426 15 15V5.25H15.75C16.1642 5.25 16.5 4.91421 16.5 4.5C16.5 4.08579 16.1642 3.75 15.75 3.75H14.25H12.75V3C12.75 1.75736 11.7426 0.75 10.5 0.75H7.5C6.25736 0.75 5.25 1.75736 5.25 3V3.75ZM6.75 3.75H11.25V3C11.25 2.58579 10.9142 2.25 10.5 2.25H7.5C7.08579 2.25 6.75 2.58579 6.75 3V3.75ZM12 5.25H6H4.5V15C4.5 15.4142 4.83579 15.75 5.25 15.75H12.75C13.1642 15.75 13.5 15.4142 13.5 15V5.25H12ZM6.75 8.25V12.75C6.75 13.1642 7.08579 13.5 7.5 13.5C7.91421 13.5 8.25 13.1642 8.25 12.75V8.25C8.25 7.83579 7.91421 7.5 7.5 7.5C7.08579 7.5 6.75 7.83579 6.75 8.25ZM9.75 12.75V8.25C9.75 7.83579 10.0858 7.5 10.5 7.5C10.9142 7.5 11.25 7.83579 11.25 8.25V12.75C11.25 13.1642 10.9142 13.5 10.5 13.5C10.0858 13.5 9.75 13.1642 9.75 12.75Z" fill="white"/>
</mask>
<g mask="url(#mask0)">
<rect width="18" height="18" fill="#473CD2"/>
</g>
</svg>
