<svg width="14" height="14" viewBox="0 0 14 14" fill="none" xmlns="http://www.w3.org/2000/svg">
<path fill-rule="evenodd" clip-rule="evenodd" d="M7.26081 1.16669C6.64911 1.16669 6.0818 1.48608 5.76288 2.01186L0.82205 10.2602C0.506373 10.8067 0.504516 11.4698 0.812434 12.01C1.12035 12.5502 1.6918 12.8864 2.31356 12.8933L12.2016 12.8933C12.8298 12.8864 13.4013 12.5502 13.7092 12.01C14.0171 11.4698 14.0152 10.8067 13.7043 10.2683L8.75873 2.01186C8.43981 1.48608 7.87251 1.16669 7.26081 1.16669ZM1.82601 11.4322C1.72337 11.2522 1.72399 11.0311 1.82763 10.8517L6.76275 2.61301C6.86863 2.43935 7.05735 2.33335 7.26081 2.33335C7.46471 2.33335 7.65381 2.43982 7.75956 2.61415L12.6987 10.8597C12.7976 11.0311 12.7982 11.2522 12.6956 11.4322C12.593 11.6123 12.4025 11.7244 12.1952 11.7267L2.31997 11.7266C2.11913 11.7244 1.92865 11.6123 1.82601 11.4322ZM6.67747 5.30995V7.64329C6.67747 7.96545 6.93864 8.22662 7.26081 8.22662C7.58297 8.22662 7.84414 7.96545 7.84414 7.64329V5.30995C7.84414 4.98779 7.58297 4.72662 7.26081 4.72662C6.93864 4.72662 6.67747 4.98779 6.67747 5.30995ZM7.67328 8.98081C7.90109 9.20861 7.90109 9.57796 7.67328 9.80577C7.44548 10.0336 7.07613 10.0336 6.84833 9.80577C6.62052 9.57796 6.62052 9.20861 6.84833 8.98081C7.07613 8.753 7.44548 8.753 7.67328 8.98081Z" fill="#B1323C"/>
<mask id="mask0" mask-type="alpha" maskUnits="userSpaceOnUse" x="0" y="1" width="14" height="12">
<path fill-rule="evenodd" clip-rule="evenodd" d="M7.26081 1.16669C6.64911 1.16669 6.0818 1.48608 5.76288 2.01186L0.82205 10.2602C0.506373 10.8067 0.504516 11.4698 0.812434 12.01C1.12035 12.5502 1.6918 12.8864 2.31356 12.8933L12.2016 12.8933C12.8298 12.8864 13.4013 12.5502 13.7092 12.01C14.0171 11.4698 14.0152 10.8067 13.7043 10.2683L8.75873 2.01186C8.43981 1.48608 7.87251 1.16669 7.26081 1.16669ZM1.82601 11.4322C1.72337 11.2522 1.72399 11.0311 1.82763 10.8517L6.76275 2.61301C6.86863 2.43935 7.05735 2.33335 7.26081 2.33335C7.46471 2.33335 7.65381 2.43982 7.75956 2.61415L12.6987 10.8597C12.7976 11.0311 12.7982 11.2522 12.6956 11.4322C12.593 11.6123 12.4025 11.7244 12.1952 11.7267L2.31997 11.7266C2.11913 11.7244 1.92865 11.6123 1.82601 11.4322ZM6.67747 5.30995V7.64329C6.67747 7.96545 6.93864 8.22662 7.26081 8.22662C7.58297 8.22662 7.84414 7.96545 7.84414 7.64329V5.30995C7.84414 4.98779 7.58297 4.72662 7.26081 4.72662C6.93864 4.72662 6.67747 4.98779 6.67747 5.30995ZM7.67328 8.98081C7.90109 9.20861 7.90109 9.57796 7.67328 9.80577C7.44548 10.0336 7.07613 10.0336 6.84833 9.80577C6.62052 9.57796 6.62052 9.20861 6.84833 8.98081C7.07613 8.753 7.44548 8.753 7.67328 8.98081Z" fill="white"/>
</mask>
<g mask="url(#mask0)">
<rect width="14" height="14" fill="#B1323C"/>
</g>
</svg>
