<svg width="14" height="14" viewBox="0 0 14 14" fill="none" xmlns="http://www.w3.org/2000/svg">
<path d="M2.33333 7.58317H11.6667C11.9888 7.58317 12.25 7.322 12.25 6.99984C12.25 6.67767 11.9888 6.4165 11.6667 6.4165H2.33333C2.01117 6.4165 1.75 6.67767 1.75 6.99984C1.75 7.322 2.01117 7.58317 2.33333 7.58317Z" fill="#473CD2"/>
<path d="M7.75423 10.0874C7.52642 10.3152 7.52642 10.6845 7.75423 10.9123C7.98203 11.1401 8.35138 11.1401 8.57919 10.9123L12.0792 7.41232C12.307 7.18451 12.307 6.81516 12.0792 6.58736L8.57919 3.08736C8.35138 2.85955 7.98203 2.85955 7.75423 3.08736C7.52642 3.31516 7.52642 3.68451 7.75423 3.91232L10.8417 6.99984L7.75423 10.0874Z" fill="#473CD2"/>
</svg>
