<svg width="24px" height="24px" viewBox="0 0 24 24" xmlns="http://www.w3.org/2000/svg">
<mask id="mask0" mask-type="alpha" maskUnits="userSpaceOnUse" x="2" y="1" width="20" height="21">
<path fill-rule="evenodd" clip-rule="evenodd" d="M11.9999 3C8.1339 3 4.99989 6.13401 4.99989 10C4.99989 13.866 8.1339 17 11.9999 17C15.8659 17 18.9999 13.866 18.9999 10C18.9999 6.13401 15.8659 3 11.9999 3ZM2.99989 10C2.99989 5.02944 7.02933 1 11.9999 1C16.9705 1 20.9999 5.02944 20.9999 10C20.9999 13.245 19.2825 16.0889 16.7071 17.6723C18.5756 18.2281 20.243 19.1077 21.5866 20.2335C22.0099 20.5882 22.0655 21.219 21.7108 21.6423C21.356 22.0656 20.7253 22.1212 20.302 21.7665C18.3045 20.0926 15.3461 19 11.9999 19C8.65363 19 5.69524 20.0926 3.69772 21.7665C3.27441 22.1212 2.64369 22.0656 2.28897 21.6423C1.93425 21.219 1.98986 20.5882 2.41317 20.2335C3.75672 19.1077 5.42412 18.2281 7.29265 17.6723C4.71724 16.0889 2.99989 13.245 2.99989 10ZM9.99989 10C9.99989 8.89543 10.8953 8 11.9999 8C13.1045 8 13.9999 8.89543 13.9999 10C13.9999 11.1046 13.1045 12 11.9999 12C10.8953 12 9.99989 11.1046 9.99989 10ZM11.9999 6C9.79075 6 7.99989 7.79086 7.99989 10C7.99989 12.2091 9.79075 14 11.9999 14C14.209 14 15.9999 12.2091 15.9999 10C15.9999 7.79086 14.209 6 11.9999 6Z" />
</mask>
<g mask="url(#mask0)">
<rect width="24" height="24"/>
</g>
</svg>
