<svg width="32" height="32" viewBox="0 0 32 32" fill="none" xmlns="http://www.w3.org/2000/svg">
<path fill-rule="evenodd" clip-rule="evenodd" d="M26.6668 16.0085V14.7685C26.6668 14.0322 27.2637 13.4352 28.0001 13.4352C28.7365 13.4352 29.3334 14.0322 29.3334 14.7685V16.0093C29.3297 22.5047 25.0541 28.224 18.8253 30.0657C12.5964 31.9074 5.89813 29.4327 2.36282 23.9837C-1.17249 18.5346 -0.702651 11.4093 3.51755 6.47168C7.73775 1.53405 14.703 -0.0396556 20.6361 2.60397C21.3087 2.90368 21.611 3.69191 21.3113 4.36454C21.0116 5.03717 20.2234 5.33949 19.5508 5.03978C14.6964 2.87681 8.99757 4.16439 5.54468 8.20427C2.09179 12.2441 1.70737 18.074 4.5999 22.5323C7.49242 26.9906 12.9728 29.0153 18.0692 27.5085C23.1655 26.0016 26.6637 21.3222 26.6668 16.0085ZM11.6096 13.7324L14.6667 16.7896L28.3906 3.06574C28.9113 2.54504 29.7555 2.54504 30.2762 3.06574C30.7969 3.58643 30.7969 4.43066 30.2762 4.95135L15.6096 19.618C15.0889 20.1387 14.2446 20.1387 13.7239 19.618L9.72394 15.618C9.20324 15.0973 9.20324 14.2531 9.72394 13.7324C10.2446 13.2117 11.0889 13.2117 11.6096 13.7324Z" fill="#8832B1"/>
<mask id="mask0" mask-type="alpha" maskUnits="userSpaceOnUse" x="0" y="1" width="31" height="30">
<path fill-rule="evenodd" clip-rule="evenodd" d="M26.6668 16.0085V14.7685C26.6668 14.0322 27.2637 13.4352 28.0001 13.4352C28.7365 13.4352 29.3334 14.0322 29.3334 14.7685V16.0093C29.3297 22.5047 25.0541 28.224 18.8253 30.0657C12.5964 31.9074 5.89813 29.4327 2.36282 23.9837C-1.17249 18.5346 -0.702651 11.4093 3.51755 6.47168C7.73775 1.53405 14.703 -0.0396556 20.6361 2.60397C21.3087 2.90368 21.611 3.69191 21.3113 4.36454C21.0116 5.03717 20.2234 5.33949 19.5508 5.03978C14.6964 2.87681 8.99757 4.16439 5.54468 8.20427C2.09179 12.2441 1.70737 18.074 4.5999 22.5323C7.49242 26.9906 12.9728 29.0153 18.0692 27.5085C23.1655 26.0016 26.6637 21.3222 26.6668 16.0085ZM11.6096 13.7324L14.6667 16.7896L28.3906 3.06574C28.9113 2.54504 29.7555 2.54504 30.2762 3.06574C30.7969 3.58643 30.7969 4.43066 30.2762 4.95135L15.6096 19.618C15.0889 20.1387 14.2446 20.1387 13.7239 19.618L9.72394 15.618C9.20324 15.0973 9.20324 14.2531 9.72394 13.7324C10.2446 13.2117 11.0889 13.2117 11.6096 13.7324Z" fill="white"/>
</mask>
<g mask="url(#mask0)">
<rect width="32" height="32" fill="#8832B1"/>
</g>
</svg>
