<svg width="20" height="20" viewBox="0 0 18 18" xmlns="http://www.w3.org/2000/svg">
<path d="M7.81066 9L11.7803 5.03033C12.0732 4.73744 12.0732 4.26256 11.7803 3.96967C11.4874 3.67678 11.0126 3.67678 10.7197 3.96967L6.21967 8.46967C5.92678 8.76256 5.92678 9.23744 6.21967 9.53033L10.7197 14.0303C11.0126 14.3232 11.4874 14.3232 11.7803 14.0303C12.0732 13.7374 12.0732 13.2626 11.7803 12.9697L7.81066 9Z" fill="white"/>
<mask id="mask0" mask-type="alpha" maskUnits="userSpaceOnUse" x="6" y="3" width="6" height="12">
<path d="M7.81066 9L11.7803 5.03033C12.0732 4.73744 12.0732 4.26256 11.7803 3.96967C11.4874 3.67678 11.0126 3.67678 10.7197 3.96967L6.21967 8.46967C5.92678 8.76256 5.92678 9.23744 6.21967 9.53033L10.7197 14.0303C11.0126 14.3232 11.4874 14.3232 11.7803 14.0303C12.0732 13.7374 12.0732 13.2626 11.7803 12.9697L7.81066 9Z" fill="white"/>
</mask>
<g mask="url(#mask0)">
<rect width="18" height="18"/>
</g>
</svg>
