<svg width="24" height="24" viewBox="0 0 24 24" xmlns="http://www.w3.org/2000/svg">
<path fill-rule="evenodd" clip-rule="evenodd" d="M8 1V3H6C4.34315 3 3 4.34315 3 6V8H1C0.447715 8 0 8.44771 0 9C0 9.55229 0.447715 10 1 10H3V13H1C0.447715 13 0 13.4477 0 14C0 14.5523 0.447715 15 1 15H3V18C3 19.6569 4.34315 21 6 21H8V23C8 23.5523 8.44771 24 9 24C9.55229 24 10 23.5523 10 23V21H14V23C14 23.5523 14.4477 24 15 24C15.5523 24 16 23.5523 16 23V21H18C19.6569 21 21 19.6569 21 18V15H23C23.5523 15 24 14.5523 24 14C24 13.4477 23.5523 13 23 13H21V10H23C23.5523 10 24 9.55229 24 9C24 8.44771 23.5523 8 23 8H21V6C21 4.34315 19.6569 3 18 3H16V1C16 0.447715 15.5523 0 15 0C14.4477 0 14 0.447715 14 1V3H10V1C10 0.447715 9.55229 0 9 0C8.44771 0 8 0.447715 8 1ZM5 14V18C5 18.5523 5.44772 19 6 19H9H15H18C18.5523 19 19 18.5523 19 18V14V9V6C19 5.44772 18.5523 5 18 5H15H9H6C5.44772 5 5 5.44772 5 6V9V14ZM9 8H15C15.5523 8 16 8.44772 16 9V15C16 15.5523 15.5523 16 15 16H9C8.44772 16 8 15.5523 8 15V9C8 8.44772 8.44772 8 9 8ZM14 14H10V10H14V14Z" />
<mask id="mask0" mask-type="alpha" maskUnits="userSpaceOnUse" x="0" y="0" width="24" height="24">
<path fill-rule="evenodd" clip-rule="evenodd" d="M8 1V3H6C4.34315 3 3 4.34315 3 6V8H1C0.447715 8 0 8.44771 0 9C0 9.55229 0.447715 10 1 10H3V13H1C0.447715 13 0 13.4477 0 14C0 14.5523 0.447715 15 1 15H3V18C3 19.6569 4.34315 21 6 21H8V23C8 23.5523 8.44771 24 9 24C9.55229 24 10 23.5523 10 23V21H14V23C14 23.5523 14.4477 24 15 24C15.5523 24 16 23.5523 16 23V21H18C19.6569 21 21 19.6569 21 18V15H23C23.5523 15 24 14.5523 24 14C24 13.4477 23.5523 13 23 13H21V10H23C23.5523 10 24 9.55229 24 9C24 8.44771 23.5523 8 23 8H21V6C21 4.34315 19.6569 3 18 3H16V1C16 0.447715 15.5523 0 15 0C14.4477 0 14 0.447715 14 1V3H10V1C10 0.447715 9.55229 0 9 0C8.44771 0 8 0.447715 8 1ZM5 14V18C5 18.5523 5.44772 19 6 19H9H15H18C18.5523 19 19 18.5523 19 18V14V9V6C19 5.44772 18.5523 5 18 5H15H9H6C5.44772 5 5 5.44772 5 6V9V14ZM9 8H15C15.5523 8 16 8.44772 16 9V15C16 15.5523 15.5523 16 15 16H9C8.44772 16 8 15.5523 8 15V9C8 8.44772 8.44772 8 9 8ZM14 14H10V10H14V14Z" fill="white"/>
</mask>
<g mask="url(#mask0)">
<rect width="24" height="24" />
</g>
</svg>
