<svg width="18" height="18" viewBox="0 0 18 18" fill="none" xmlns="http://www.w3.org/2000/svg">
<mask id="mask0" mask-type="alpha" maskUnits="userSpaceOnUse" x="1" y="7" width="16" height="4">
<path fill-rule="evenodd" clip-rule="evenodd" d="M4.5 9C4.5 9.82843 3.82843 10.5 3 10.5C2.17157 10.5 1.5 9.82843 1.5 9C1.5 8.17157 2.17157 7.5 3 7.5C3.82843 7.5 4.5 8.17157 4.5 9ZM10.5 9C10.5 9.82843 9.82843 10.5 9 10.5C8.17157 10.5 7.5 9.82843 7.5 9C7.5 8.17157 8.17157 7.5 9 7.5C9.82843 7.5 10.5 8.17157 10.5 9ZM15 10.5C15.8284 10.5 16.5 9.82843 16.5 9C16.5 8.17157 15.8284 7.5 15 7.5C14.1716 7.5 13.5 8.17157 13.5 9C13.5 9.82843 14.1716 10.5 15 10.5Z" fill="#3C4042"/>
</mask>
<g mask="url(#mask0)">
<rect width="18" height="18" fill="#473CD2"/>
</g>
</svg>
