<svg width="18" height="18" viewBox="0 0 18 18" fill="none" xmlns="http://www.w3.org/2000/svg">
<mask id="mask0" mask-type="alpha" maskUnits="userSpaceOnUse" x="1" y="1" width="16" height="16">
<path fill-rule="evenodd" clip-rule="evenodd" d="M4.875 6.75C4.33029 6.75 3.99688 6.74919 3.74601 6.73207C3.53296 6.71753 3.46914 6.69538 3.46298 6.69294C3.46227 6.69266 3.46232 6.69263 3.46299 6.69291C3.27922 6.61679 3.13321 6.47078 3.05709 6.28701C3.05737 6.28768 3.05734 6.28773 3.05706 6.28702C3.05462 6.28086 3.03247 6.21704 3.01793 6.00399C3.00081 5.75312 3 5.41971 3 4.875C3 4.33029 3.00081 3.99688 3.01793 3.74601C3.03247 3.53296 3.05462 3.46914 3.05706 3.46298C3.05734 3.46227 3.05737 3.46232 3.05709 3.46299C3.13321 3.27922 3.27922 3.13321 3.46299 3.05709C3.46232 3.05737 3.46227 3.05734 3.46298 3.05706C3.46914 3.05462 3.53296 3.03247 3.74601 3.01793C3.99688 3.00081 4.33029 3 4.875 3C5.41971 3 5.75312 3.00081 6.00399 3.01793C6.21704 3.03247 6.28086 3.05462 6.28702 3.05706C6.28773 3.05734 6.28768 3.05737 6.28701 3.05709C6.47078 3.13321 6.61679 3.27922 6.69291 3.46299C6.69263 3.46232 6.69266 3.46227 6.69294 3.46298C6.69538 3.46914 6.71753 3.53296 6.73207 3.74601C6.74919 3.99688 6.75 4.33029 6.75 4.875C6.75 5.41971 6.74919 5.75312 6.73207 6.00399C6.71753 6.21704 6.69538 6.28086 6.69294 6.28702L6.69276 6.2874C6.69279 6.28731 6.69284 6.28718 6.69291 6.28701C6.61679 6.47078 6.47078 6.61679 6.28701 6.69291C6.28737 6.69276 6.28755 6.6927 6.28753 6.69272L6.28702 6.69294C6.28086 6.69538 6.21704 6.71753 6.00399 6.73207C5.75312 6.74919 5.41971 6.75 4.875 6.75ZM6.69272 6.28753L6.69276 6.2874L6.69272 6.28753ZM1.5 4.875C1.5 3.82663 1.5 3.30245 1.67127 2.88896C1.89963 2.33765 2.33765 1.89963 2.88896 1.67127C3.30245 1.5 3.82663 1.5 4.875 1.5C5.92337 1.5 6.44755 1.5 6.86104 1.67127C7.41235 1.89963 7.85037 2.33765 8.07873 2.88896C8.25 3.30245 8.25 3.82663 8.25 4.875C8.25 5.92337 8.25 6.44755 8.07873 6.86104C7.85037 7.41235 7.41235 7.85037 6.86104 8.07873C6.44755 8.25 5.92337 8.25 4.875 8.25C3.82663 8.25 3.30245 8.25 2.88896 8.07873C2.33765 7.85037 1.89963 7.41235 1.67127 6.86104C1.5 6.44755 1.5 5.92337 1.5 4.875ZM4.875 15C4.33029 15 3.99688 14.9992 3.74601 14.9821C3.53296 14.9675 3.46914 14.9454 3.46298 14.9429C3.46227 14.9427 3.46232 14.9426 3.46299 14.9429C3.27922 14.8668 3.13321 14.7208 3.05709 14.537L3.05728 14.5375C3.05731 14.5376 3.05723 14.5374 3.05706 14.537C3.05462 14.5309 3.03247 14.467 3.01793 14.254C3.00081 14.0031 3 13.6697 3 13.125C3 12.5803 3.00081 12.2469 3.01793 11.996C3.03247 11.783 3.05462 11.7191 3.05706 11.713L3.05728 11.7125C3.0573 11.7125 3.05724 11.7126 3.05709 11.713C3.13321 11.5292 3.27922 11.3832 3.46299 11.3071C3.46232 11.3074 3.46227 11.3073 3.46298 11.3071C3.46914 11.3046 3.53296 11.2825 3.74601 11.2679C3.99688 11.2508 4.33029 11.25 4.875 11.25C5.41971 11.25 5.75312 11.2508 6.00399 11.2679C6.21704 11.2825 6.28086 11.3046 6.28702 11.3071L6.28753 11.3073C6.28756 11.3073 6.28738 11.3072 6.28701 11.3071C6.47078 11.3832 6.61679 11.5292 6.69291 11.713C6.69285 11.7128 6.6928 11.7127 6.69277 11.7126C6.69272 11.7125 6.6927 11.7124 6.69273 11.7125L6.69294 11.713C6.69538 11.7191 6.71753 11.783 6.73207 11.996C6.74919 12.2469 6.75 12.5803 6.75 13.125C6.75 13.6697 6.74919 14.0031 6.73207 14.254C6.71753 14.467 6.69538 14.5309 6.69294 14.537C6.69279 14.5374 6.69272 14.5375 6.69271 14.5375L6.69291 14.537C6.61679 14.7208 6.47078 14.8668 6.28701 14.9429C6.28768 14.9426 6.28773 14.9427 6.28702 14.9429C6.28086 14.9454 6.21704 14.9675 6.00399 14.9821C5.75312 14.9992 5.41971 15 4.875 15ZM1.5 13.125C1.5 12.0766 1.5 11.5524 1.67127 11.139C1.89963 10.5876 2.33765 10.1496 2.88896 9.92127C3.30245 9.75 3.82663 9.75 4.875 9.75C5.92337 9.75 6.44755 9.75 6.86104 9.92127C7.41235 10.1496 7.85037 10.5876 8.07873 11.139C8.25 11.5524 8.25 12.0766 8.25 13.125C8.25 14.1734 8.25 14.6976 8.07873 15.111C7.85037 15.6624 7.41235 16.1004 6.86104 16.3287C6.44755 16.5 5.92337 16.5 4.875 16.5C3.82663 16.5 3.30245 16.5 2.88896 16.3287C2.33765 16.1004 1.89963 15.6624 1.67127 15.111C1.5 14.6976 1.5 14.1734 1.5 13.125ZM11.996 6.73207C12.2469 6.74919 12.5803 6.75 13.125 6.75C13.6697 6.75 14.0031 6.74919 14.254 6.73207C14.467 6.71753 14.5309 6.69538 14.537 6.69294C14.5374 6.69279 14.5375 6.69272 14.5375 6.69271C14.5375 6.69271 14.5373 6.69277 14.537 6.69291C14.7208 6.61679 14.8668 6.47078 14.9429 6.28701C14.9426 6.28768 14.9427 6.28773 14.9429 6.28702C14.9454 6.28086 14.9675 6.21704 14.9821 6.00399C14.9992 5.75312 15 5.41971 15 4.875C15 4.33029 14.9992 3.99688 14.9821 3.74601C14.9675 3.53296 14.9454 3.46914 14.9429 3.46298C14.9427 3.46227 14.9426 3.46232 14.9429 3.46299C14.8668 3.27922 14.7208 3.13321 14.537 3.05709L14.5375 3.05728C14.5376 3.05731 14.5374 3.05723 14.537 3.05706C14.5309 3.05462 14.467 3.03247 14.254 3.01793C14.0031 3.00081 13.6697 3 13.125 3C12.5803 3 12.2469 3.00081 11.996 3.01793C11.783 3.03247 11.7191 3.05462 11.713 3.05706C11.7126 3.0572 11.7125 3.05727 11.7125 3.05728C11.7125 3.0573 11.7126 3.05724 11.713 3.05709C11.5292 3.13321 11.3832 3.27922 11.3071 3.46299C11.3074 3.46232 11.3073 3.46227 11.3071 3.46298C11.3046 3.46914 11.2825 3.53296 11.2679 3.74601C11.2508 3.99688 11.25 4.33029 11.25 4.875C11.25 5.41971 11.2508 5.75312 11.2679 6.00399C11.2825 6.21704 11.3046 6.28086 11.3071 6.28702L11.3073 6.28753C11.3073 6.28756 11.3072 6.28738 11.3071 6.28701C11.3832 6.47078 11.5292 6.61679 11.713 6.69291C11.7126 6.69275 11.7124 6.69269 11.7125 6.69273C11.7125 6.69275 11.7127 6.69282 11.713 6.69294C11.7191 6.69538 11.783 6.71753 11.996 6.73207ZM9.92127 2.88896C9.75 3.30245 9.75 3.82663 9.75 4.875C9.75 5.92337 9.75 6.44755 9.92127 6.86104C10.1496 7.41235 10.5876 7.85037 11.139 8.07873C11.5524 8.25 12.0766 8.25 13.125 8.25C14.1734 8.25 14.6976 8.25 15.111 8.07873C15.6624 7.85037 16.1004 7.41235 16.3287 6.86104C16.5 6.44755 16.5 5.92337 16.5 4.875C16.5 3.82663 16.5 3.30245 16.3287 2.88896C16.1004 2.33765 15.6624 1.89963 15.111 1.67127C14.6976 1.5 14.1734 1.5 13.125 1.5C12.0766 1.5 11.5524 1.5 11.139 1.67127C10.5876 1.89963 10.1496 2.33765 9.92127 2.88896ZM13.125 15C12.5803 15 12.2469 14.9992 11.996 14.9821C11.783 14.9675 11.7191 14.9454 11.713 14.9429C11.7123 14.9427 11.7123 14.9426 11.713 14.9429C11.5292 14.8668 11.3832 14.7208 11.3071 14.537C11.3074 14.5377 11.3073 14.5377 11.3071 14.537C11.3046 14.5309 11.2825 14.467 11.2679 14.254C11.2508 14.0031 11.25 13.6697 11.25 13.125C11.25 12.5803 11.2508 12.2469 11.2679 11.996C11.2825 11.783 11.3046 11.7191 11.3071 11.713C11.3073 11.7123 11.3074 11.7123 11.3071 11.713C11.3832 11.5292 11.5292 11.3832 11.713 11.3071C11.7123 11.3074 11.7123 11.3073 11.713 11.3071C11.7191 11.3046 11.783 11.2825 11.996 11.2679C12.2469 11.2508 12.5803 11.25 13.125 11.25C13.6697 11.25 14.0031 11.2508 14.254 11.2679C14.467 11.2825 14.5309 11.3046 14.537 11.3071C14.5377 11.3073 14.5377 11.3074 14.537 11.3071C14.7208 11.3832 14.8668 11.5292 14.9429 11.713C14.9426 11.7123 14.9427 11.7123 14.9429 11.713C14.9454 11.7191 14.9675 11.783 14.9821 11.996C14.9992 12.2469 15 12.5803 15 13.125C15 13.6697 14.9992 14.0031 14.9821 14.254C14.9675 14.467 14.9454 14.5309 14.9429 14.537C14.9427 14.5377 14.9426 14.5377 14.9429 14.537C14.8668 14.7208 14.7208 14.8668 14.537 14.9429C14.5377 14.9426 14.5377 14.9427 14.537 14.9429C14.5309 14.9454 14.467 14.9675 14.254 14.9821C14.0031 14.9992 13.6697 15 13.125 15ZM9.75 13.125C9.75 12.0766 9.75 11.5524 9.92127 11.139C10.1496 10.5876 10.5876 10.1496 11.139 9.92127C11.5524 9.75 12.0766 9.75 13.125 9.75C14.1734 9.75 14.6976 9.75 15.111 9.92127C15.6624 10.1496 16.1004 10.5876 16.3287 11.139C16.5 11.5524 16.5 12.0766 16.5 13.125C16.5 14.1734 16.5 14.6976 16.3287 15.111C16.1004 15.6624 15.6624 16.1004 15.111 16.3287C14.6976 16.5 14.1734 16.5 13.125 16.5C12.0766 16.5 11.5524 16.5 11.139 16.3287C10.5876 16.1004 10.1496 15.6624 9.92127 15.111C9.75 14.6976 9.75 14.1734 9.75 13.125Z" fill="black"/>
</mask>
<g mask="url(#mask0)">
<rect width="18" height="18" fill="#7F86A0"/>
</g>
</svg>
