<svg width="100%" height="100%" viewBox="0 0 32 32" fill="none" xmlns="http://www.w3.org/2000/svg">
<circle opacity="0.1" cx="16" cy="16" r="16" fill="#7F86A0"/>
<mask id="mask0" mask-type="alpha" maskUnits="userSpaceOnUse" x="9" y="8" width="14" height="17">
<path fill-rule="evenodd" clip-rule="evenodd" d="M13.75 12.25C13.75 11.0074 14.7574 10 16 10C17.2426 10 18.25 11.0074 18.25 12.25C18.25 13.4926 17.2426 14.5 16 14.5C14.7574 14.5 13.75 13.4926 13.75 12.25ZM16 8.5C13.9289 8.5 12.25 10.1789 12.25 12.25C12.25 14.3211 13.9289 16 16 16C18.0711 16 19.75 14.3211 19.75 12.25C19.75 10.1789 18.0711 8.5 16 8.5ZM16 22.75C14.865 22.75 13.1411 22.3829 10.7525 21.5926C10.7915 20.7523 11.288 19.9512 12.1978 19.3238C13.1469 18.6693 14.4935 18.25 16 18.25C17.5065 18.25 18.8531 18.6693 19.8022 19.3238C20.7118 19.951 21.2083 20.7519 21.2475 21.592L21.0651 21.6525L21.0634 21.6531C18.7674 22.4026 17.1037 22.75 16 22.75ZM16 16.75C14.2319 16.75 12.5786 17.2391 11.3463 18.0889C10.1134 18.9391 9.25 20.1962 9.25 21.7V21.8622C9.25 22.3464 9.55986 22.7763 10.0192 22.9294L10.1731 22.9807C12.6423 23.8038 14.593 24.25 16 24.25C17.3523 24.25 19.204 23.8381 21.5307 23.0785L21.9794 22.9295C22.4395 22.7768 22.75 22.3466 22.75 21.8618V21.7C22.75 20.1962 21.8866 18.9391 20.6537 18.0889C19.4214 17.2391 17.7681 16.75 16 16.75Z" fill="black"/>
</mask>
<g mask="url(#mask0)">
<rect x="7" y="7" width="18" height="18" fill="white"/>
</g>
</svg>
