<svg width="20" height="20" viewBox="0 0 18 18" fill="none" xmlns="http://www.w3.org/2000/svg">
<mask id="mask0" mask-type="alpha" maskUnits="userSpaceOnUse" x="1" y="1" width="16" height="16">
<path fill-rule="evenodd" clip-rule="evenodd" d="M5.25 3C4.00736 3 3 4.00736 3 5.25V6.00007C3 6.41428 2.66421 6.75007 2.25 6.75007C1.83579 6.75007 1.5 6.41428 1.5 6.00007V5.25C1.5 3.17893 3.17893 1.5 5.25 1.5H6.00007C6.41428 1.5 6.75007 1.83579 6.75007 2.25C6.75007 2.66421 6.41428 3 6.00007 3H5.25ZM11.25 2.25C11.25 1.83579 11.5858 1.5 12 1.5H12.7501C14.8211 1.5 16.5001 3.17893 16.5001 5.25V6.00007C16.5001 6.41428 16.1643 6.75007 15.7501 6.75007C15.3359 6.75007 15.0001 6.41428 15.0001 6.00007V5.25C15.0001 4.00736 13.9927 3 12.7501 3H12C11.5858 3 11.25 2.66421 11.25 2.25ZM16.5001 12C16.5001 11.5858 16.1643 11.25 15.7501 11.25C15.3359 11.25 15.0001 11.5858 15.0001 12V12.7501C15.0001 13.9927 13.9927 15.0001 12.7501 15.0001H12C11.5858 15.0001 11.25 15.3359 11.25 15.7501C11.25 16.1643 11.5858 16.5001 12 16.5001H12.7501C14.8211 16.5001 16.5001 14.8211 16.5001 12.7501V12ZM2.25 11.25C2.66421 11.25 3 11.5858 3 12V12.7501C3 13.9927 4.00736 15.0001 5.25 15.0001H6.00007C6.41428 15.0001 6.75007 15.3359 6.75007 15.7501C6.75007 16.1643 6.41428 16.5001 6.00007 16.5001H5.25C3.17893 16.5001 1.5 14.8211 1.5 12.7501V12C1.5 11.5858 1.83579 11.25 2.25 11.25ZM7.75 6.75C7.19772 6.75 6.75 7.19772 6.75 7.75V10.25C6.75 10.8023 7.19772 11.25 7.75 11.25H10.25C10.8023 11.25 11.25 10.8023 11.25 10.25V7.75C11.25 7.19772 10.8023 6.75 10.25 6.75H7.75Z" fill="white"/>
</mask>
<g mask="url(#mask0)">
<rect width="18" height="18" fill="white"/>
</g>
</svg>
