<svg width="14" height="14" viewBox="0 0 14 14" fill="none" xmlns="http://www.w3.org/2000/svg">
<path fill-rule="evenodd" clip-rule="evenodd" d="M6.12508 11.0833C3.38667 11.0833 1.16675 8.8634 1.16675 6.12499C1.16675 3.38658 3.38667 1.16666 6.12508 1.16666C8.86349 1.16666 11.0834 3.38658 11.0834 6.12499C11.0834 7.284 10.6858 8.35013 10.0194 9.19438L12.6626 11.8375C12.8904 12.0653 12.8904 12.4347 12.6626 12.6625C12.4348 12.8903 12.0654 12.8903 11.8376 12.6625L9.19447 10.0193C8.35022 10.6857 7.28409 11.0833 6.12508 11.0833ZM8.7686 8.84318C8.08562 9.50751 7.15313 9.91666 6.12508 9.91666C4.031 9.91666 2.33341 8.21907 2.33341 6.12499C2.33341 4.03091 4.031 2.33332 6.12508 2.33332C8.21916 2.33332 9.91675 4.03091 9.91675 6.12499C9.91675 7.15304 9.5076 8.08553 8.84327 8.76851C8.82987 8.77971 8.81685 8.79159 8.80427 8.80418C8.79169 8.81676 8.7798 8.82978 8.7686 8.84318Z" fill="#7F86A0"/>
<mask id="mask0" mask-type="alpha" maskUnits="userSpaceOnUse" x="1" y="1" width="12" height="12">
<path fill-rule="evenodd" clip-rule="evenodd" d="M6.12508 11.0833C3.38667 11.0833 1.16675 8.8634 1.16675 6.12499C1.16675 3.38658 3.38667 1.16666 6.12508 1.16666C8.86349 1.16666 11.0834 3.38658 11.0834 6.12499C11.0834 7.284 10.6858 8.35013 10.0194 9.19438L12.6626 11.8375C12.8904 12.0653 12.8904 12.4347 12.6626 12.6625C12.4348 12.8903 12.0654 12.8903 11.8376 12.6625L9.19447 10.0193C8.35022 10.6857 7.28409 11.0833 6.12508 11.0833ZM8.7686 8.84318C8.08562 9.50751 7.15313 9.91666 6.12508 9.91666C4.031 9.91666 2.33341 8.21907 2.33341 6.12499C2.33341 4.03091 4.031 2.33332 6.12508 2.33332C8.21916 2.33332 9.91675 4.03091 9.91675 6.12499C9.91675 7.15304 9.5076 8.08553 8.84327 8.76851C8.82987 8.77971 8.81685 8.79159 8.80427 8.80418C8.79169 8.81676 8.7798 8.82978 8.7686 8.84318Z" fill="white"/>
</mask>
<g mask="url(#mask0)">
<rect width="14" height="14" fill="#7F86A0"/>
</g>
</svg>
