<?xml version="1.0"?><svg xmlns="http://www.w3.org/2000/svg"  viewBox="0 0 24 24" width="20px" height="20px">    <path d="M 12 2 C 9.709 2 7.5608125 3.1379063 6.2578125 5.0039062 C 2.7848125 5.1319063 5.9211895e-16 7.997 0 11.5 C 0 14.564 2.1341875 17.1295 4.9921875 17.8125 C 5.3491875 13.9915 8.5635156 11 12.478516 11 C 16.386516 11 19.595891 13.980969 19.962891 17.792969 C 19.962891 17.793969 19.964844 17.795875 19.964844 17.796875 C 22.287844 17.152875 24 15.025 24 12.5 C 24 9.536 21.643078 7.1119062 18.705078 7.0039062 C 17.839078 4.0559063 15.149 2 12 2 z M 12 13.025391 C 9.202 13.279391 7 15.636953 7 18.501953 C 7 19.742953 7.4114844 20.906469 8.1464844 21.855469 L 7 23 L 11 23 L 11 19 L 9.5917969 20.408203 C 9.2217969 19.847203 9 19.198 9 18.5 C 9 16.741 10.308 15.295781 12 15.050781 L 12 13.025391 z M 14 14 L 14 18 L 15.408203 16.591797 C 15.778203 17.152797 16 17.802 16 18.5 C 16 20.259 14.692 21.704219 13 21.949219 L 13 23.974609 C 15.798 23.720609 18 21.362047 18 18.498047 C 18 17.257047 17.588516 16.093531 16.853516 15.144531 L 18 14 L 14 14 z"/></svg>
