<svg width="18" height="18" viewBox="0 0 18 18" fill="none" xmlns="http://www.w3.org/2000/svg">
<mask id="mask0" mask-type="alpha" maskUnits="userSpaceOnUse" x="3" y="1" width="12" height="16">
<path fill-rule="evenodd" clip-rule="evenodd" d="M5.03033 7.28033L9 3.31066L12.9697 7.28033C13.2626 7.57322 13.7374 7.57322 14.0303 7.28033C14.3232 6.98744 14.3232 6.51256 14.0303 6.21967L9.53033 1.71967C9.23744 1.42678 8.76256 1.42678 8.46967 1.71967L3.96967 6.21967C3.67678 6.51256 3.67678 6.98744 3.96967 7.28033C4.26256 7.57322 4.73744 7.57322 5.03033 7.28033ZM5.03033 10.7197L9 14.6893L12.9697 10.7197C13.2626 10.4268 13.7374 10.4268 14.0303 10.7197C14.3232 11.0126 14.3232 11.4874 14.0303 11.7803L9.53033 16.2803C9.23744 16.5732 8.76256 16.5732 8.46967 16.2803L3.96967 11.7803C3.67678 11.4874 3.67678 11.0126 3.96967 10.7197C4.26256 10.4268 4.73744 10.4268 5.03033 10.7197Z" fill="black"/>
</mask>
<g mask="url(#mask0)">
<rect width="18" height="18" fill="white"/>
</g>
</svg>
